<svg width="27" height="18" viewBox="0 0 27 18" fill="none" xmlns="http://www.w3.org/2000/svg">
<path d="M22.2949 2.28464C20.6527 1.62549 18.9198 1.15504 17.1395 0.885023C17.1234 0.882648 17.1068 0.8847 17.0921 0.890897C17.0773 0.897095 17.0651 0.907134 17.0572 0.919633C16.834 1.26573 16.5871 1.71843 16.4146 2.07283C14.4955 1.81812 12.5435 1.81812 10.6244 2.07283C10.432 1.67803 10.2143 1.29302 9.9723 0.919633C9.96418 0.90727 9.95197 0.897347 9.93728 0.89117C9.92259 0.884992 9.9061 0.882849 9.88999 0.885023C8.10927 1.1536 6.37603 1.62429 4.7346 2.28464C4.72056 2.28933 4.70881 2.29814 4.70136 2.30956C1.4185 6.59979 0.517854 10.7848 0.959473 14.9172C0.961056 14.9366 0.975301 14.956 0.992713 14.9684C2.90438 16.2069 5.04261 17.1525 7.31625 17.7649C7.3323 17.7693 7.34956 17.7692 7.3655 17.7644C7.38144 17.7597 7.39524 17.7507 7.40489 17.7386C7.89242 17.1572 8.32612 16.5439 8.69968 15.8988C8.70746 15.8855 8.71013 15.8703 8.70727 15.8556C8.70442 15.8409 8.6962 15.8274 8.68385 15.8171C8.67567 15.8103 8.66596 15.8051 8.65535 15.8018C7.9734 15.5726 7.31292 15.2972 6.67994 14.9781C6.66226 14.9694 6.64911 14.955 6.64322 14.938C6.63733 14.921 6.63914 14.9026 6.64828 14.8868C6.65367 14.8765 6.66181 14.8674 6.67203 14.8605C6.80499 14.7732 6.93795 14.6819 7.06458 14.5905C7.07576 14.5826 7.08919 14.5776 7.1034 14.5759C7.11762 14.5742 7.13211 14.5759 7.1453 14.5808C11.2908 16.2365 15.7782 16.2365 19.8731 14.5808C19.8868 14.5756 19.9018 14.5738 19.9166 14.5755C19.9314 14.5772 19.9453 14.5824 19.957 14.5905C20.0836 14.6819 20.2166 14.7732 20.3496 14.8605C20.3603 14.8673 20.369 14.8765 20.3747 14.887C20.3805 14.8975 20.3832 14.9091 20.3826 14.9208C20.3819 14.9324 20.378 14.9438 20.3711 14.9538C20.3643 14.9638 20.3547 14.9722 20.3432 14.9781C19.7117 15.3001 19.0504 15.5752 18.3662 15.8005C18.3553 15.8039 18.3454 15.8094 18.3372 15.8166C18.329 15.8238 18.3227 15.8324 18.3187 15.842C18.3151 15.8512 18.3136 15.861 18.3144 15.8708C18.3152 15.8806 18.3183 15.8901 18.3235 15.8988C18.7034 16.5425 19.1387 17.1572 19.6167 17.7386C19.6263 17.7507 19.6401 17.7597 19.6561 17.7644C19.672 17.7692 19.6893 17.7693 19.7053 17.7649C21.9828 17.1544 24.1245 16.2087 26.0384 14.9684C26.0479 14.9626 26.0559 14.955 26.0617 14.9461C26.0674 14.9373 26.0708 14.9274 26.0716 14.9172C26.6003 10.1397 25.1868 5.98928 22.3265 2.31095C22.3237 2.30487 22.3194 2.29939 22.3139 2.29486C22.3085 2.29033 22.302 2.28685 22.2949 2.28464ZM9.31858 12.4004C8.0697 12.4004 7.04242 11.3981 7.04242 10.1688C7.04242 8.93803 8.0507 7.93573 9.31858 7.93573C10.5959 7.93573 11.6137 8.94634 11.5947 10.1688C11.5947 11.3981 10.5864 12.4004 9.31858 12.4004ZM17.7331 12.4004C16.4858 12.4004 15.4569 11.3981 15.4569 10.1688C15.4569 8.93803 16.4652 7.93573 17.7331 7.93573C19.0104 7.93573 20.0298 8.94634 20.0092 10.1688C20.0092 11.3981 19.0104 12.4004 17.7331 12.4004Z" fill="white"/>
</svg>
