<svg width="26" height="27" viewBox="0 0 26 27" fill="none" xmlns="http://www.w3.org/2000/svg">
<path fill-rule="evenodd" clip-rule="evenodd" d="M8.12332 0.894812C9.47366 0.832648 9.90421 0.818833 13.344 0.818833C16.7837 0.818833 17.2142 0.833799 18.5634 0.894812C19.9126 0.955824 20.8336 1.1711 21.6394 1.48307C22.4832 1.80195 23.2488 2.30041 23.8819 2.94507C24.5266 3.57707 25.0239 4.34146 25.3416 5.18643C25.6547 5.99226 25.8689 6.91321 25.931 8.2601C25.9932 9.61274 26.007 10.0433 26.007 13.4819C26.007 16.9216 25.992 17.3522 25.931 18.7025C25.87 20.0494 25.6547 20.9703 25.3416 21.7762C25.0239 22.6212 24.5257 23.3869 23.8819 24.0198C23.2488 24.6645 22.4832 25.1618 21.6394 25.4795C20.8336 25.7927 19.9126 26.0068 18.5657 26.0689C17.2142 26.1311 16.7837 26.1449 13.344 26.1449C9.90421 26.1449 9.47366 26.13 8.12332 26.0689C6.77644 26.0079 5.85549 25.7927 5.04966 25.4795C4.2046 25.1618 3.43894 24.6636 2.806 24.0198C2.16177 23.3874 1.66323 22.6222 1.34514 21.7773C1.03317 20.9715 0.81905 20.0505 0.756886 18.7037C0.694722 17.351 0.680908 16.9205 0.680908 13.4819C0.680908 10.0421 0.695874 9.61159 0.756886 8.2624C0.817899 6.91321 1.03317 5.99226 1.34514 5.18643C1.6637 4.34156 2.16262 3.57628 2.80715 2.94392C3.4392 2.29983 4.20408 1.80131 5.04851 1.48307C5.85434 1.1711 6.77529 0.956976 8.12217 0.894812H8.12332ZM18.461 3.17416C17.1256 3.11315 16.725 3.10048 13.344 3.10048C9.96292 3.10048 9.56231 3.11315 8.22693 3.17416C6.99171 3.23057 6.32172 3.43663 5.87506 3.61046C5.2845 3.8407 4.86201 4.11353 4.41881 4.55673C3.99868 4.96546 3.67535 5.46304 3.47253 6.01298C3.2987 6.45964 3.09264 7.12963 3.03623 8.36485C2.97522 9.70023 2.96256 10.1008 2.96256 13.4819C2.96256 16.8629 2.97522 17.2635 3.03623 18.5989C3.09264 19.8341 3.2987 20.5041 3.47253 20.9508C3.67514 21.4999 3.99863 21.9983 4.41881 22.407C4.82748 22.8272 5.32594 23.1507 5.87506 23.3533C6.32172 23.5271 6.99171 23.7332 8.22693 23.7896C9.56231 23.8506 9.96177 23.8633 13.344 23.8633C16.7261 23.8633 17.1256 23.8506 18.461 23.7896C19.6962 23.7332 20.3662 23.5271 20.8128 23.3533C21.4034 23.1231 21.8259 22.8502 22.2691 22.407C22.6893 21.9983 23.0128 21.4999 23.2154 20.9508C23.3892 20.5041 23.5953 19.8341 23.6517 18.5989C23.7127 17.2635 23.7253 16.8629 23.7253 13.4819C23.7253 10.1008 23.7127 9.70023 23.6517 8.36485C23.5953 7.12963 23.3892 6.45964 23.2154 6.01298C22.9851 5.42242 22.7123 4.99994 22.2691 4.55673C21.8603 4.13663 21.3628 3.81331 20.8128 3.61046C20.3662 3.43663 19.6962 3.23057 18.461 3.17416ZM11.7265 17.3855C12.6298 17.7616 13.6356 17.8123 14.5722 17.5291C15.5087 17.2459 16.3179 16.6464 16.8615 15.8329C17.4051 15.0194 17.6494 14.0424 17.5527 13.0687C17.456 12.0951 17.0243 11.1852 16.3313 10.4945C15.8895 10.053 15.3553 9.71498 14.7672 9.5047C14.1791 9.29442 13.5517 9.21715 12.9301 9.27845C12.3085 9.33976 11.7083 9.53812 11.1726 9.85924C10.6369 10.1804 10.179 10.6163 9.83203 11.1356C9.48502 11.6549 9.25746 12.2447 9.16574 12.8625C9.07402 13.4803 9.12042 14.1108 9.30161 14.7085C9.48279 15.3062 9.79425 15.8563 10.2136 16.3192C10.6329 16.7821 11.1496 17.1463 11.7265 17.3855ZM8.74151 8.87943C9.34591 8.27503 10.0634 7.7956 10.8531 7.4685C11.6428 7.1414 12.4892 6.97304 13.344 6.97304C14.1987 6.97304 15.0451 7.1414 15.8348 7.4685C16.6245 7.7956 17.342 8.27503 17.9464 8.87943C18.5508 9.48384 19.0302 10.2014 19.3573 10.9911C19.6844 11.7807 19.8528 12.6271 19.8528 13.4819C19.8528 14.3366 19.6844 15.183 19.3573 15.9727C19.0302 16.7624 18.5508 17.4799 17.9464 18.0843C16.7257 19.305 15.0702 19.9907 13.344 19.9907C11.6177 19.9907 9.96215 19.305 8.74151 18.0843C7.52087 16.8637 6.83512 15.2081 6.83512 13.4819C6.83512 11.7556 7.52087 10.1001 8.74151 8.87943ZM21.2963 7.94237C21.4461 7.80108 21.566 7.63118 21.649 7.44273C21.7319 7.25427 21.7762 7.05109 21.7792 6.84521C21.7822 6.63933 21.7438 6.43495 21.6664 6.24415C21.589 6.05336 21.4741 5.88003 21.3285 5.73444C21.1829 5.58885 21.0096 5.47395 20.8188 5.39654C20.628 5.31914 20.4236 5.2808 20.2178 5.2838C20.0119 5.2868 19.8087 5.33108 19.6202 5.41402C19.4318 5.49695 19.2619 5.61685 19.1206 5.76663C18.8458 6.05791 18.6954 6.44482 18.7012 6.84521C18.7071 7.2456 18.8687 7.62796 19.1519 7.91111C19.435 8.19426 19.8174 8.35591 20.2178 8.36175C20.6182 8.36758 21.0051 8.21715 21.2963 7.94237Z" fill="#011C2A"/>
</svg>
