<svg width="26" height="21" viewBox="0 0 26 21" fill="none" xmlns="http://www.w3.org/2000/svg">
<path d="M25.8332 2.60238C24.9018 2.99801 23.8883 3.28274 22.8443 3.39364C23.9282 2.75954 24.7399 1.75778 25.127 0.576297C24.11 1.1721 22.9957 1.58989 21.8338 1.81113C21.3482 1.29989 20.7609 0.892618 20.1084 0.614683C19.4559 0.336749 18.7523 0.19411 18.0415 0.195657C15.1652 0.195657 12.8521 2.49149 12.8521 5.30883C12.8521 5.70445 12.9008 6.10008 12.9799 6.48072C8.67315 6.25893 4.83209 4.23284 2.27848 1.13077C1.81318 1.91338 1.56935 2.80447 1.57235 3.71133C1.57235 5.48566 2.48849 7.05018 3.88551 7.97031C3.06222 7.93838 2.25821 7.71555 1.53887 7.31993V7.38286C1.53887 9.86752 3.32244 11.9266 5.69952 12.4001C5.2532 12.5143 4.79406 12.5727 4.33293 12.574C3.99509 12.574 3.6755 12.541 3.35288 12.496C4.0103 14.5221 5.92475 15.9937 8.20443 16.0417C6.42086 17.4174 4.18683 18.2266 1.76106 18.2266C1.32582 18.2266 0.924058 18.2116 0.50708 18.1637C2.80807 19.6173 5.53821 20.4565 8.47836 20.4565C18.0232 20.4565 23.2461 12.6699 23.2461 5.91126C23.2461 5.68947 23.2461 5.46768 23.2309 5.24588C24.2413 4.51757 25.127 3.61543 25.8332 2.60238Z" fill="white"/>
</svg>
